/* XPM */
static char *result[] = {
/* columns rows colors chars-per-pixel */
"32 32 44 1 ",
"  c #1D1609",
". c #1F170A",
"X c #1F180A",
"o c #20190A",
"O c #21190B",
"+ c #221A0C",
"@ c #231B0C",
"# c #251C0D",
"$ c #261E0E",
"% c #271E0E",
"& c #29200F",
"* c #3E321A",
"= c #40331B",
"- c #42351C",
"; c #44371D",
": c #45371E",
"> c #493B20",
", c #5B4A2A",
"< c #7B653A",
"1 c #7D673B",
"2 c #826B3E",
"3 c #836C3E",
"4 c #846D3F",
"5 c #8A7242",
"6 c #927947",
"7 c #927A47",
"8 c #937A47",
"9 c #957B48",
"0 c #977D49",
"q c #987E49",
"w c #9A804A",
"e c #9A804B",
"r c #9B814B",
"t c #9C814C",
"y c #9C824C",
"u c #9D824C",
"i c #9E834C",
"p c #9E834D",
"a c #9F844D",
"s c #A0844D",
"d c #A0854E",
"f c #A1854E",
"g c #A1864E",
"h c #9F8FFF",
/* pixels */
"aaaaaaaaaaaaaypaaaaaaaaaaaaaaypa",
"aahhhhhhhhhhhhraaahhhhhhhhhhhhra",
"aahhhhhhhhhhhhraaahhhhhhhhhhhhra",
"aahhhhhhhhhhhhraaahhhhhhhhhhhhra",
"aahhhhhhhhhhhhraaahhhhhhhhhhhhra",
"aahhhhhhhhhhhhraaahhhhhhhhhhhhra",
"aahhhhhhhhhhhhraaahhhhhhhhhhhhra",
"aahhhhhhhhhhhhraaahhhhhhhhhhhhra",
"aahhhhhhhhhhhhtaaahhhhhhhhhhhhta",
"aaaaaaaaaaaaapaaaaaaaaaaaaaaapaa",
"aaaaaaaaaaaaaaaaaaaaaaaaaaaaaaaa",
"aaaaaaaaaaaaaaaaaaaaaaaaaaaaaaaa",
"ay867777777769paay867777777769pa",
"auhhhhhhhhhhhhraauhhhhhhhhhhhhra",
"aahhhhhhhhhhhhraaahhhhhhhhhhhhra",
"aahhhhhhhhhhhhraaahhhhhhhhhhhhra",
"aahhhhhhhhhhhhraaahhhhhhhhhhhhra",
"aahhhhhhhhhhhhraaahhhhhhhhhhhhra",
"aahhhhhhhhhhhhraaahhhhhhhhhhhhra",
"aahhhhhhhhhhhhraaahhhhhhhhhhhhra",
"arhhhhhhhhhhhhtaarhhhhhhhhhhhhta",
"aiewwwwwwwwwwraaaiwwwwwwwwwwwraa",
"aaaaaaaaaaaaaaaaaaaaaaaaaaaaaaaa",
"asffffffgdaaaaaaaaaaaaaaaaaaaaaa",
"s032222225paaaaaaaaaaaaaaaaaaaaa",
"g1&$%%%%#>yaaaaaaaaaaaaaaaaaaaaa",
"g<@oOOOO.:yaaaaaaaaaaaaaaaaaaaaa",
"g<+.XXXX ;yaaaaaaaaaaaaaaaaaaaaa",
"f4-=====*,uaaaaaaaaaaaaaaaaaaaaa",
"auqqqqqqqwaaaaaaaaaaaaaaaaaaaaaa",
"aaaaaaaaaaaaaaaaaaaaaaaaaaaaaaaa",
"aaaaaaaaaaaaaaaaaaaaaaaaaaaaaaaa"
};
