/* XPM */
static char *_c426308c1a04ca5f55ae6a1a690c157GXWwlkoCM2POHDED[] = {
/* columns rows colors chars-per-pixel */
"81 98 54 1 ",
"  c black",
". c #070707",
"X c #0B0B0B",
"o c #170F07",
"O c #0B1707",
"+ c #1F170B",
"@ c #131313",
"# c #1B1B1B",
"$ c #2B230F",
"% c #232B0F",
"& c #332B13",
"* c #3F2F17",
"= c #3F2B1B",
"- c #2F371F",
"; c #2F2F2F",
": c #373737",
"> c #43331B",
", c #4B371B",
"< c #533F1F",
"1 c #473323",
"2 c #533F2F",
"3 c #5F4323",
"4 c #5B472B",
"5 c #474F33",
"6 c #5F4B37",
"7 c #6B4727",
"8 c #774F2B",
"9 c #7F532F",
"0 c #775F3F",
"q c #434343",
"w c #4B4B4B",
"e c #6F5743",
"r c #875733",
"t c #8F5F37",
"y c #9B633B",
"u c #A36B3F",
"i c #836B4B",
"p c #8F7753",
"a c #AB6F43",
"s c #B37347",
"d c #BF7B4B",
"f c #937B63",
"g c #CB7F4F",
"h c #9F876F",
"j c #CF8353",
"k c #D78B5B",
"l c #DF9363",
"z c #E79B6B",
"x c #EFA373",
"c c #F7AB7B",
"v c #FFB383",
"b c #FFBB93",
"n c #FFBF9B",
"m c #FFC79B",
/* pixels */
"                                                                                 ",
"    ##@..                                                                        ",
"   ;;;@X...                                                                      ",
"  @q:###X...                                                                     ",
" @#qw;&eee1--&&                                                                  ",
" @#;:e0e1&-@@@..                                                                 ",
" .##6fe------&@@@.                                                               ",
" ..2if6e5&&&-&&&&&@                                                              ",
" .%626f615--eeee--1&                                                             ",
" .&2----e11e-&@@@@&--                                                            ",
" %6&&&&11-e&XXXX@@@@-                                                            ",
" &--@&@--e&#:#;q;@@...                                                           ",
" e-@@&X--&X#:;@:;#@@....                                                         ",
" e-@@@X-eX.#;:;@q1666----&                                                       ",
" -5-@-@-f.@@;qq#6e2&----5-&&                                                     ",
" &1&&&@-f.@@#:%0p22&---&@&-e&&X                                                  ",
" &-&&&@-h...@#6eeie6-----@&-e&&%.                                                ",
" @&&&&@1f...@#p66epe66--1&+&-6&%%.                                               ",
" @%&&&&-f...#1p-6eff0eeeee5@-&22&%.                                              ",
" @%%&&&-0....6e--6ef0ef0-.XX-&6%....                                             ",
" .@&%&%-e....e6&&66eef0&XXXXX-&......                                            ",
" ..+&%&%6&...p&%&&6ep0-@XXXXXX........                                           ",
" ..+%&%%2&...0%%&&6ep-&.XXXXX.X.......                                           ",
" ...+%%%26...2.+%&&66&..X+%&----&+@@..                                           ",
"  ..@@%%&6+..1.+++&i&X.@&---------&@@.                                           ",
"  ..@%@%%1%..1..++&0%.@105555-------+@X.                                         ",
"   ..@%@%%=..%..+++0XX-e005555------&@@@.                                        ",
"   ...@++X$@.@..+%%0XX-e0005555i0i00eee&@                                        ",
"    ..@@@@@$.@...%%i.%--ee000iiiii00eeeeee                                       ",
"    ...@@@@$@@...%.i.%--6ee00ii0ii00eee0eee                                      ",
"     ..X@@XX=@.....i.&---6ee0-+....XOOX@-000                                     ",
"     ..X@@@@=@.@...i.&---6e0-.........XXX-i0                                     ",
"      ...@@@&X.@...0.%%&-60-..........XXX+-00                                    ",
"      ....@@@X@@...e.%%&66e@..........XXXX+ii                                    ",
"       ..@.@@@@+...e.%+&6e&......&&-&+.XXXX-ii                                   ",
"       ...@.@@@@.@.e.%.&66@.....&--5-&+XXXX+ip                                   ",
"        .X.@@@@@@+.e.%.226X....&--5iii5&XXXX-pp                                  ",
"        ....@.@@++.i...12%.....&--e5+%55-XXX+pp                                  ",
"         .X@@@@@++%i...22%.....%&e5+-1+55XXXXip                                  ",
"         ..X@.+@%+%p.XX22X.....%%e@---5p5XXXX5p                                  ",
"          ...@.++%%p.XX66X.....X&e@---1i5@X@@%p                                  ",
"          ....++%+%i.%X26.......+i5+--i55@@XX%p                                  ",
"           ..@.++%%i.%X66........&050055-XXXXXpp                                 ",
"           ..X@.@+%0.%.26.........&5555&XXXXXXii                                 ",
"      ,,,777$$@@+++0.%X26X..............XXXXXX0i                                 ",
"    <77usjjsy77.+.+1.%.6e@..............XXXXXX00                                 ",
"   ,7tdkkkkkksy<+++1.%&66@.............X.XX...00                                 ",
"   ,assjkkkkkksy<++1.%&6eX....................e0                                 ",
"   ,ayssjjkjjjgss<+1.%%66@...................&00                                 ",
"   8ytysdjjjjkkksy%2.%%66%...................&00e                                ",
"  ,8ytysdjjjjkkkks<2.%%26%.........@@XXX@@X..&e0e                                ",
"  ,8t73ysdjjkkkllls<.%+22%.......XX@XXX@@@XX.@e0e                                ",
"  ,8837yasddjjlzxxly<%%11%.......XXXXXXXXXX@.@e00                                ",
"  ,8777yasskkzxvvvxg7+%111........XXXXXX@X@@.@3e0*                               ",
" *,8873tussdjzvvnnnxg<+11=.........XX+X%@%@%@.3e0**                              ",
" ,88747ryssskcnnnnvcls+1==.....X.X.+XXXXXXX@@.&ei***                             ",
" ,87747ryssskcnnvvcxlgd1==..........X+X+X+X%@.&e0*33                             ",
" ,8834<ryssskzcnvvcxzljy==....X.X.@+++++%%%%&.&03*33*                            ",
" ,8773&79yaagkznnvcxzzljy=.....XX@@+%+&%&%&%&.@00*33*                            ",
" +,87,,79yaasgkcnvcxzzzlkd.....X+@+@++++%%%%%.@03*333*                           ",
" +,,&,&<49tuuakzvxzlllllkkd$...@@%@%+%+&%&%&%..03*333*                           ",
"  +,,&,&49tuuugkxzkkkjjkkkgg7..X+@%@%%%&&&&&&..3**333**                          ",
"   .,,,*449tyusgxzkjgjgjjdgggy7@++%+%%%&&&&&&..**33333*                          ",
"       <449tyyuslljdjjddgdsssggy7@%&&&&------.**333383**                         ",
"     +++o>8ryyuskkjddajgklljdsssdyy77&&----&&*333338833*                         ",
"   ,++$$o>4rtyyakkjddjklzzzzljssdddddyyttuassuytt8883333                         ",
"  ,<,**$o>4899tugjdajjllzzzzljssaaasssaaayryyttrrrr33333*                        ",
"  ,<<<*$+$4499ryssdsjjzzxcxxzkkjaajjdaassytttrr883333933*                        ",
"  ,<<,*$+>,377rrtttuakzkjdssyyyaaaaayuuautustt7788999993>                        ",
"  *<,*$$+$>,<<38rrrttssattdddjjjyyysklzjjsstusur99ryyy993*                       ",
"  ***$$$++$*,,<77887,3<77ajjjaaassjlzjjddddssttsuyyaayy9<,*                      ",
"   *+o$++.o$***<337<<**7sjaatttykkjjuyyyaaaasssrtaaaasyy<<*                      ",
"    .$o++..$&&*,<3<**,rut9r7yjjdssyyryuuasauuusyrtusssdy<<*                      ",
"    .$+++..$&&&*>,,*,,rut77ajjjdssyysjcczxzlkksyrtussyus7,*                      ",
"     ++++..o$$&&*>>7,3tr77ssjssyssjccljay9yajzljsrtyyyyu7,*$                     ",
"      +++.....o$$*,*7<&7tyaaayyaaa9rrrryyyaayrrtajgurt837<$$                     ",
"        ......oo$*,*+,99yyrr8aa9ttylcljjjzvvzjartuauuatt3<$$                     ",
"        .......o$,*+*9tr737aa97alclyrrrruujzvvlljddaatysy<,$$                    ",
"        ........$&.*793>3yy97aaayyr737sllzvvljatyyytt7ryssyr3$                   ",
"        ..........$<73$377tayrrr<<7rgzljuut773333ryssskksyr73*3$                 ",
"        .........$$<<*,77tyy977<tagjauu8779tsjzcclkjgddsyr773*33$                ",
"         ........$$<<*,7yay977agggju879779tsjzccljsautrrrr88,*&&$                ",
"           ......o***&3tsy97raguaat87,rysklxczjayrrrr3<<<<****$$$$               ",
"           .......$$.,7adu7uggut77,,rysjcczjsr73333rrrrtaarr77<,$$               ",
"           .........$<8gkuakgut7,,ryagjjat3*3ussastyysyjzjaasat7$$               ",
"           .........$<8akkky77,7rsgkjja8**3yuadklkssssrglkaayadr7,               ",
"            ........$<8udsy<,,9sggkjar3*37uuagdlxllsssrglgaatggyg7               ",
"              ......$<8rut<,79slgdur3&*<78ysaagzkljjgaulssaaaxauxa7<             ",
"                o...$<8ry8*9sslsttr3&*<78tsjyajzkxlddagxysyysljkaat73            ",
"                @...$<8r3*3sdlst993&#<78tujdaujlzxzgaggkryllslagkks997           ",
"                 ....,33**8jsst33,&#,378tuudtadllzlkkjxlusxxlxcxljzgst7          ",
"                 ....$*&*,sayy33&&##<777ttuuttaxlzjxjlxxsjbbllxzjzzzkla87        ",
"                  ....$$$3yt88,*..#&,877trtdaajzxxlllklzslmmlzzdkxlklkkut7       ",
"                   ...$$$8t977,&..#&,78789tduajllckddzvlxxxdlzkzlkczsdkjsy77     ",
"                      .$$37733,+.&+&388988rsuykllzsddxxxllsadjxdlclzzljdjdyt7    ",
"                       .$,<3,,&+.&++,8r888tstadlxljaszxcljtjjjclzxxllzjjksdyu7   ",
"                        &*,<,,$+&&$++3rr88tuaadglzjuslzldkutskzxzzzzcxzzlzszaay  ",
"                        .&*<,,$++&$$+$3883trasajlzstalzsljmydzxzjzxxlkdxkkkzsdty "
};
