/* XPM */
static char *result[] = {
/* columns rows colors chars-per-pixel */
"144 98 74 1 ",
"  c black",
". c #070707",
"X c #0B0B0B",
"o c #170F07",
"O c #0B1707",
"+ c #1F170B",
"@ c #131313",
"# c #1B1B1B",
"$ c #2B230F",
"% c #232B0F",
"& c #332B13",
"* c #3F2F17",
"= c #3F2B1B",
"- c #2F371F",
"; c #232323",
": c #2F2F2F",
"> c #373737",
", c #43331B",
"< c #4B371B",
"1 c #533F1F",
"2 c #732B00",
"3 c #473323",
"4 c #533F2F",
"5 c #5F4323",
"6 c #5B472B",
"7 c #474F33",
"8 c #574333",
"9 c #5F4B37",
"0 c #6B4727",
"q c #774F2B",
"w c #7F532F",
"e c #675333",
"r c #775F3F",
"t c #434343",
"y c #4B4B4B",
"u c #6F5743",
"i c #9F3700",
"p c #9B5B13",
"a c #AF7B1F",
"s c #875733",
"d c #8F5F37",
"f c #9B633B",
"g c #A36B3F",
"h c #836B4B",
"j c #8F7753",
"k c #AB6F43",
"l c #B37347",
"z c #BF7B4B",
"x c #937B63",
"c c #A76B6B",
"v c #CB7F4F",
"b c #C39B2F",
"n c #FFFF23",
"m c #9F8363",
"M c #9F876F",
"N c #CF8353",
"B c #D78B5B",
"V c #D7BB43",
"C c #DF9363",
"Z c #E79B6B",
"A c #EFA373",
"S c #F7AB7B",
"D c #EBDB57",
"F c #FFFF6B",
"G c #EB9797",
"H c #FFB383",
"J c #FFBB93",
"K c #FFBF9B",
"L c #FFC79B",
"P c #FFCFB3",
"I c #CBCBCB",
"U c LightGray",
"Y c gray86",
"T c #E7E7E7",
/* pixels */
"                                                                                                                                                ",
"        ##@..                                                                                                                                   ",
"       :::@X...                                                                                                                                 ",
"      @t>###X...                                                                                                                                ",
"     @#ty:&uuu3--&&                                                                                                                             ",
"     @#:>uru3&-@@@..                                                                                                                            ",
"     .##9xu------&@@@.                                                                                                                  pppp    ",
"     ..4hx9u7&&&-&&&&&@                                                                                                                paceep   ",
"     .%949x937--uuuu--3&                                                                                                              aamme88p  ",
"     .&4----u33u-&@@@@&--                                                                                                            abbPI8>8p  ",
"     %9&&&&33-u&XXXX@@@@-                                                                                                           abVDUm8>8p  ",
"     &--@&@--u&#>#:t:@@...                                                                                                         abVnPYe>8pe  ",
"     u-@@&X--&X#>:@>:#@@....                                                                                                      aabFTYm88ap   ",
"     u-@@@X-uX.#:>:@t3999----&                                                                                                   abbbVTYe>8pe   ",
"     -7-@-@-x.@@:tt#9u4&----7-&&                                                                                                peffpbDGe8ae    ",
"     &3&&&@-x.@@#>%rj44&---&@&-u&&X                                                                                            f88>>2pba88p     ",
"     &-&&&@-M...@#9uuhu9-----@&-u&&%.                                                                                          i8>;;;>pb8ae     ",
"     @&&&&@3x...@#j99uju99--3&+&-9&%%.                                                                                         fi>eT;;2abp      ",
"     @%&&&&-x...#3j-9uxxruuuuu7@-&44&%.                                                                                        fa88f;;2pae      ",
"     @%%&&&-r....9u--9uxruxr-.XX-&9%....                                                                                       pbf88;;8pp       ",
"     .@&%&%-u....u9&&99uuxr&XXXXX-&......                                                                                       pbf>>8iae       ",
"     ..+&%&%9&...j&%&&9ujr-@XXXXXX........                                                                                      fpaapppe        ",
"     ..+%&%%4&...r%%&&9uj-&.XXXXX.X.......                                                                                       eeffee         ",
"     ...+%%%49...4.+%&&99&..X+%&----&+@@..                                                                                                      ",
"      ..@@%%&9+..3.+++&h&X.@&---------&@@.                                                                                                      ",
"      ..@%@%%3%..3..++&r%.@3r7777-------+@X.                                                                                                    ",
"       ..@%@%%=..%..+++rXX-urr7777------&@@@.                                                                                                   ",
"       ...@++X$@.@..+%%rXX-urrr7777hrhrruuu&@                                                                                                   ",
"        ..@@@@@$.@...%%h.%--uurrrhhhhhrruuuuuu                                                                                                  ",
"        ...@@@@$@@...%.h.%--9uurrhhrhhrruuuruuu                                                                                                 ",
"         ..X@@XX=@.....h.&---9uur-+....XOOX@-rrr                                                                                                ",
"         ..X@@@@=@.@...h.&---9ur-.........XXX-hr                                                                                                ",
"          ...@@@&X.@...r.%%&-9r-..........XXX+-rr                                                                                               ",
"          ....@@@X@@...u.%%&99u@..........XXXX+hh                                                                                               ",
"           ..@.@@@@+...u.%+&9u&......&&-&+.XXXX-hh                                                                                              ",
"           ...@.@@@@.@.u.%.&99@.....&--7-&+XXXX+hj                                                                                              ",
"            .X.@@@@@@+.u.%.449X....&--7hhh7&XXXX-jj                                                                                             ",
"            ....@.@@++.h...34%.....&--u7+%77-XXX+jj                                                                                             ",
"             .X@@@@@++%h...44%.....%&u7+-3+77XXXXhj                                                                                             ",
"             ..X@.+@%+%j.XX44X.....%%u@---7j7XXXX7j                                                                                             ",
"              ...@.++%%j.XX99X.....X&u@---3h7@X@@%j                                                                                             ",
"              ....++%+%h.%X49.......+h7+--h77@@XX%j                                                                                             ",
"               ..@.++%%h.%X99........&r7rr77-XXXXXjj                                                                                            ",
"               ..X@.@+%r.%.49.........&7777&XXXXXXhh                                                                                            ",
"          .<<000$$@@+++r.%X49X..............XXXXXXrh                                                                                            ",
"        100glNNlf00.+.+3.%.9u@..............XXXXXXrr                                                                                            ",
"       <0dzBBBBBBlf1+++3.%&99@.............X.XX...rr                                                                                            ",
"       <kllNBBBBBBlf1++3.%&9uX....................ur                                                                                            ",
"       <kfllNNBNNNvll1+3.%%99@...................&rr                                                                                            ",
"       qfdflzNNNNBBBlf%4.%%99%...................&rru                                                                                           ",
"      <qfdflzNNNNBBBBl14.%%49%.........@@XXX@@X..&uru                                                                                           ",
"      <qd05flzNNBBBCCCl1.%+44%.......XX@XXX@@@XX.@uru                                                                                           ",
"      <qq50fklzzNNCZAACf1%%33%.......XXXXXXXXXX@.@urr                                                                                           ",
"      <q000fkllBBZAHHHAv0+%333........XXXXXX@X@@.@5ur*                                                                                          ",
"     *<qq05dgllzNZHHKKKAv1+33=.........XX+X%@%@%@.5ur**                                                                                         ",
"     <qq060sflllBSKKKKHSCl+3==.....X.X.+XXXXXXX@@.&uh***                                                                                        ",
"     <q0060sflllBSKKHHSACvz3==..........X+X+X+X%@.&ur*55                                                                                        ",
"     <qq561sflllBZSKHHSAZCNf==....X.X.@+++++%%%%&.&r5*55*                                                                                       ",
"     <q005&0wfkkvBZKKHSAZZCNf=.....XX@@+%+&%&%&%&.@rr*55*                                                                                       ",
"     +<q0<<0wfkklvBSKHSAZZZCBz.....X+@+@++++%%%%%.@r5*555*                                                                                      ",
"     +<<&<&16wdggkBZHAZCCCCCBBz$...@@%@%+%+&%&%&%..r5*555*                                                                                      ",
"      +<<&<&6wdgggvBAZBBBNNBBBvv0..X+@%@%%%&&&&&&..5**555**                                                                                     ",
"       .<<<*66wdfglvAZBNvNvNNzvvvf0@++%+%%%&&&&&&..**55555*                                                                                     ",
"           166wdffglCCNzNNzzvzlllvvf0@%&&&&------.**5555q5**                                                                                    ",
"         +++o,qsffglBBNzzkNvBCCNzlllzff00&&----&&*55555qq55*                                                                                    ",
"       <++$$o,6sdffkBBNzzNBCZZZZCNllzzzzzffddgkllgfddqqq5555                                                                                    ",
"      <1<**$o,6qwwdgvNzkNNCCZZZZCNllkkklllkkkfsffddssss55555*                                                                                   ",
"      <111*$+$66wwsfllzlNNZZASAAZBBNkkNNzkkllfdddssqq5555w55*                                                                                   ",
"      <11<*$+,<500ssdddgkBZBNzllfffkkkkkfggkgdgldd00qqwwwww5,                                                                                   ",
"      *1<*$$+$,<115qsssddllkddzzzNNNffflBCZNNlldglgswwsfffww5*                                                                                  ",
"      ***$$$++$*<<100qq0<5100kNNNkkkllNCZNNzzzzllddlgffkkffw1<*                                                                                 ",
"       *+o$++.o$***155011**0lNkkdddfBBNNgfffkkkklllsdkkkklff11*                                                                                 ",
"        .$o++..$&&*<151**<sgdws0fNNzllffsfggklkggglfsdglllzf11*                                                                                 ",
"        .$+++..$&&&*,<<*<<sgd00kNNNzllfflNSSZAZCBBlfsdgllfgl0<*                                                                                 ",
"         ++++..o$$&&*,,0<5ds00llNllfllNSSCNkfwfkNZCNlsdffffg0<*$                                                                                ",
"          +++.....o$$*<*01&0dfkkkffkkkwssssfffkkfssdkNvgsdq501$$                                                                                ",
"            ......oo$*<*+<wwffssqkkwddfCSCNNNZHHZNksdgkggkdd51$$                                                                                ",
"            .......o$<*+*wds050kkw0kCSCfssssggNZHHCCNzzkkdflf1<$$                                                                               ",
"            ........$&.*0w5,5ffw0kkkffs050lCCZHHCNkdfffdd0sfllfs5$                                                                              ",
"            ..........$105$500dkfsss110svZCNggd005555sflllBBlfs05*5$                                                                            ",
"            .........$$11*<00dffw001dkvNkggq00wdlNZSSCBNvzzlfs005*55$                                                                           ",
"             ........$$11*<0fkfw00kvvvNgq0w00wdlNZSSCNlkgdssssqq<*&&$                                                                           ",
"               ......o***&5dlfw0skvgkkdq0<sflBCASZNkfssss51111****$$$$                                                                          ",
"               .......$$.<0kzg0gvvgd00<<sflNSSZNls05555ssssdkkss001<$$                                                                          ",
"               .........$1qvBgkBvgd0<<sfkvNNkd5*5gllkldfflfNZNkklkd0$$                                                                          ",
"               .........$1qkBBBf00<0slvBNNkq**5fgkzBCBllllsvCBkkfkzs0<                                                                          ",
"                ........$1qgzlf1<<wlvvBNks5*50ggkvzCACClllsvCvkkdvvfv0                                                                          ",
"                  ......$1qsgd1<0wlCvzgs5&*10qflkkvZBCNNvkgCllkkkAkgAk01                                                                        ",
"                    o...$1qsfq*wllCldds5&*10qdlNfkNZBACzzkvAflfflCNBkkd05                                                                       ",
"                    @...$1qs5*5lzCldww5&#10qdgNzkgNCZAZvkvvBsfCClCkvBBlww0                                                                      ",
"                     ....<55**qNlld55<&#<50qdggzdkzCCZCBBNACglAACASACNZvld0                                                                     ",
"                     ....$*&*<lkff55&&##1000ddggddkACZNANCAAlNJJCCAZNZZZBCkq0                                                                   ",
"                      ....$$$5fdqq<*..#&<q00dsdzkkNZAACCCBCZlCLLCZZzBACBCBBgd0                                                                  ",
"                       ...$$$qdw00<&..#&<0q0qwdzgkNCCSBzzZHCAAAzCZBZCBSZlzBNlf00                                                                ",
"                          .$$50055<+.&+&5qqwqqslgfBCCZlzzAAACClkzNAzCSCZZCNzNzfd0                                                               ",
"                           .$<15<<&+.&++<qsqqqdldkzCACNklZASCNdNNNSCZAACCZNNBlzfg0                                                              ",
"                            &*<1<<$+&&$++5ssqqdgkkzvCZNglCZCzBgdlBZAZZZZSAZZCZlZkkf                                                             ",
"                            .&*1<<$++&$$+$5qq5dsklkNCZldkCZlCNLfzZAZNZAACBzABBBZlzdf                                                            "
};
