/* XPM */
static char *result[] = {
/* columns rows colors chars-per-pixel */
"93 142 67 1 ",
"  c black",
". c #070707",
"X c #0B0B0B",
"o c #170F07",
"O c #1F170B",
"+ c #131313",
"@ c #1B1B1B",
"# c #2B230F",
"$ c #232B0F",
"% c #332B13",
"& c #3F2F17",
"* c #3F2B1B",
"= c #2F371F",
"- c #232323",
"; c #2F2F2F",
": c #373737",
"> c #43331B",
", c #4B371B",
"< c #533F1F",
"1 c #732B00",
"2 c #473323",
"3 c #533F2F",
"4 c #5F4323",
"5 c #5B472B",
"6 c #474F33",
"7 c #574333",
"8 c #5F4B37",
"9 c #6B4727",
"0 c #774F2B",
"q c #7F532F",
"w c #675333",
"e c #775F3F",
"r c #434343",
"t c gray34",
"y c #6F5743",
"u c gray42",
"i c #9F3700",
"p c #9B5B13",
"a c #AF7B1F",
"s c #875733",
"d c #8F5F37",
"f c #9B633B",
"g c #A36B3F",
"h c #836B4B",
"j c #8F7753",
"k c #AB6F43",
"l c #B37347",
"z c #BF7B4B",
"x c #CB7F4F",
"c c #C39B2F",
"v c #FFFF23",
"b c #9F8363",
"n c #9F876F",
"m c #CF8353",
"M c #D78B5B",
"N c #D7BB43",
"B c #DF9363",
"V c #E79B6B",
"C c #EFA373",
"Z c #F7AB7B",
"A c #939393",
"S c #FFB383",
"D c #FFBB93",
"F c #FFBF9B",
"G c #FFC79B",
"H c gray86",
"J c #E7E7E7",
/* pixels */
"                                                                                             ",
"                 .......                                                                     ",
"                .;t;t;;..                                                                    ",
"               .tt;.;;....                                                                   ",
"              .t;t;..;....                                                                   ",
"              .;.;;........                                                                  ",
"             .;..;.==%%OOOO                                                                  ",
"             .;...=======%OOO                                                                ",
"             ...O=e=======%OOO                                                               ",
"             ..OO=j========OOOO                                                              ",
"             .OOO=je=%=====OOOO                                                              ",
"             OOOOOjj=%%===%%OOOO                                                             ",
"            OO%%OOene=%%%%%%OOOO                                                             ",
"            O%==%O=hne=%%%OOOOOOO                                                            ",
"           O%====O=ennnjjhhheey=O                                                            ",
"           O====%O=enhy*++++++*e=O                                                           ",
"          O%====%O=eh*++++++++++y=                                                           ",
"          O=====OOyh+++++XXXXX+++y                                                           ",
"          %====%O=h*+++X;rrrrr;++**                                                          ",
"         O=====%Oyh+++XruuuAuurX++*                                                          ",
"         $=====O=je++Xruuuruu;;rX++*                                                         ",
"         %=====O=j*++;uuAurru;@;X++*                                                         ",
"         %%%===Oyj++XrurArrrrr@+@X+X                                                         ",
"         %%%===Oje++Xu;rAr;+;r@X@X+X                                                         ",
"        O+%====Oje++Xu@;Ar;++r;X+XXX                                                         ",
"        O+%=%==On8++Xr@@ru++++;XX+XX                                                         ",
"        ++%====%n8++X;@+;A++XX@XX+;X                                                         ",
"        ++%====%n8++X;@+@ur+XX@+X;rX                                                         ",
"        ++$%====n8++X;@+Xru+XXX++;uXX                                                        ",
"        ++$=%===n8++X@;+X;A;XXX+;rAr;                                                        ",
"         +$%%===ne*++X;+X@u;XXXX++u;X                                                        ",
"         ++$%%==ne8++X;@XXrr+XXX+Xr;XX                                                       ",
"         ++$%%==en8++X@;XX;r@XXX+X;XXX                                                       ",
"          +$$===3n8*++X;XXXr@XXXXXXXXXX                                        pppa          ",
"          +$$%%==ne8++X@@XX;@XXXX8hhhh33                                      p7fNNa         ",
"          ++$%%==en8++XX@XX@@XX8jje2222233                                   pp7wfHNa        ",
"           +$$%==3n8*++X@XXX@X8jje3=======3                                  pp77bNva        ",
"           ++$%===ne8++XX@XXXynne3=========%                                 wp7:wNHNa       ",
"            +$$===en8*++X@XXyjnje====%======%                                wp7:wfNva       ",
"            +$$%==3n88++XXX2jnne3====O==3===%                                 pa77fNHNa      ",
"            ++$%===jj8+++XX8nnne3====O$=83===O                                pa77wNHva      ",
"             +$$%==yj8*++X2jjnne8====%O=28===%                                wp7:7fNHNa     ",
"             +$%%==3j88++X8jejney=====O%=83===O                               wp7:7wNHNa     ",
"             ++$$%==j882++ee88njy=====$O=28===O                               wpa77pffwpa    ",
"              +$$%==yh8*+2e888ejy2=====O%=83==%                               wpacp1::77f    ",
"              +$$===3h882882388jh8=====OO=2y===O                               pcp:---:7i    ",
"              +$$%===h882y82238ehy2====$O%=y8==O                               pa1--Jw:if    ",
"               +$$===3e88y32=288he8====%OO=2e==%O                              wp1--f77af    ",
"               ++$%%==e8832=2=38hey8====$O%=e8=%O                              wp7--77fcp    ",
"               ++$%%==3883=2=228ejey8===%OO=8e=%OO                             wai7::fcp     ",
"                +$$$===y822=2=23enjeeeyy%OO=3e%%%O                              wpppaapf     ",
"                ++$$===382=====3enjjjy3*XXO%3OXX$OO                              wwffww      ",
"                +++$%===8===2=22ennn3XXXXXXOOXXXXOO                                          ",
"                 ++$====3======2enn3XXXXXXXXXXXXXXO                                          ",
"                 ++$$%========22jn3XXXXXXXXXXXXXXXOO                                         ",
"                  ++$%%%=====%=8neXXXXXXXXXXXXXXXXXO                                         ",
"                  ++$%%%%====$2en3XXXXX$%======$XXXO                                         ",
"                  ++$$$%%===%$=jeXXXX$=388888833=XXX                                         ",
"                   ++$$$%===$%3j3XXXX=388333====3%XX                                         ",
"                  5+++$$====$%8j*XXX$38333===%%%%3+X                                         ",
"                5q5+++$%%==%$=yjXXXX=3y33=======%%%+                                         ",
"               5505d++$$%==%$=j3XXX$38y8=========%%$                                         ",
"              50005g++O%%%=$%3j*XXX%33y8========%%$$+                                        ",
"             5ddzmmg++O$%%=$%8eXXX$=33yy3=========%$+                                        ",
"            5dzmVSGgX++$$%%$=8eXXX$==3yy8=========%%$+                                       ",
"           5fBFDDZSgX+++$$$$=e3XXX%==38h83========%$$+                                       ",
"           <BGGGDZZdX+++$$$$3e*XX$===38hy8=======%%$$$+                                      ",
"           sBDFSZBBdXX++$$$$3eXXX$====8hy83=======%%%$+                                      ",
"           sBBSBmmmdXX++$$$$3eXXX%====8yhy83========%$+                                      ",
"           sfMmmmmk5XX+++$$=y3XXX%====3yhy8883====%%%%$+                                     ",
"           0ffzzzgg5XXX+++$=y*XX$=====3yhhy888833====%%+9                                    ",
"           <sfggggd>XXX+++$=y*XX$=====3yhhhyyhhhhhhh==%+99                                   ",
"            50s0dddXXXXX++$$3XXX%=====3yhhhhhhhhhhhhh3=++90                                  ",
"              >5555XXXXO++$$3XXX%=====3yhhhhhh3XXXX2hh3$+s00                                 ",
"                  XXXXOO++++3XX$======3yhhhh3XXXX..X2hy%+0fs0                                ",
"                 OOOOOOOO+++*XX$=%====3yhhh3XXXXXX..Xyh3+9kkfq                               ",
"                OOOOOOOOO+++*XX%%=%==3yhhh3XXXXXXX...2yy$+gkfzfd                             ",
"               OOOOOOOOOO+++*XX%=%%=%3yhhhXXXXXXXX...Xyy%+kgfxMxs                            ",
"              OOOOOOOOOOOO++XX$%%%%=%3hhh3XXX$$$OOX..Xyy3+gkgkzmzd                           ",
"             OOOOOO44kkg9,++XX$%%%%%=8hhhXXXO$$$OOO...288+gkglMMg9                           ",
"            OO###4fglmmMmk9+XX$%%%%%3hhh2XXO$=666=O...X88$sgglMlg9                           ",
"           O####4gmMMZFGGms9XX$%%%%%3hyhXXXO=6=====$..X88%sggglzkd9                          ",
"          O#&&#4dlVZCFGGGMg0,X$$$%%=yyh3XXXO==%++$==...232skkgllg99                          ",
"          O&&&#dgBCZVFGGGDls0X$$$$%=yyy2XXXO==+++===...233sggfggf999                         ",
"          O&&&4fMVBVmBVGGDCds,$$$$$2yyyXXXXX==+%=6==...X33sggfffd999                         ",
"          O&&#dgzMBlgmBCFDBzd9$$$$$8yy3XXXXX$==66==$...X33szgggddd99                         ",
"          O&&#dglzlggmBCGBMmk0$$$$=8yy2XXXXXX$====$X....32lBzgggdss99                        ",
"          O##OdkkllfgmVCBBzMld9$$$=8882XXXXXXXXXXXXX....32zMlgggfssd9                        ",
"          OO#OfzzzgfglmMmMzzzld$$$2888XXXXXXXXXXXXXX....22mMlgggfdsd,                        ",
"           OOOfklfs0dkzzmllzzzf0$$2388XXXXXXXXXXXXXX....2lVCmkggggdsd,                       ",
"            OOgfd9,,0glMmmmxzmls,$3332XXXXXXXXXXXXXX....gmZCzkggggdsf,                       ",
"             O4s9,O,fmmBxxxVxkmlg$2332XXXXXXXXXXXXXX...qlVCBlgggggdsf,                       ",
"            OO#,,#O,zmxmxmBBMzmmg9223XXXXXXXXXXXXXXX...lzCCMlgggggdsf,                       ",
"            OOO##OO9lzmVCBBVBVCMkg922XXXXXXXXXXXXXXX.qkZDVCmzlkkggfs9,                       ",
"           OOOOOO&&0klzMBMBVCSDBBkf22XXXXXXXXXXXXXXO9kVGDZMzklgggkf99,                       ",
"           OOOOOO,,0kllBVCZSSDDDVzlk&XXXXXXXXXXXXX9fkMDDCMmxzxkgklk09<                       ",
"           OO##OO&49gllzMCDSFFGGGVMzg9XXXXXXXXXX4dfMSSDCzlzlxkzlgzgq0<                       ",
"           OO&##Oo&9dlllMZFFFFDDGZVMMg99%%,999qgkxVCZCZMzzzzklzVmBld0<                       ",
"           OO&&#Oo,9slllMZFFSSZZCSCBMzMzgfgzzMMMmBBMmmzfllxlzMMVMBld0<                       ",
"            O&&#.O40slllMVZFSSZCCCCzMkklzzBCVBMmBBMmmzgflzklzMMBBxl09,                       ",
"            OO##..9,9fkkxMVFFSZCVCCCzzzkllzBMMMMMmxzkgfggkkllmBBVxk04&                       ",
"             OO&o.o&9fkklxMZFSZCVVCCZBlgfffkzzzxzzzkggfflzkklmBCVMk09,                       ",
"              OOo.O#,0dggkMVSCVBBBBVBVxggffggglkkkkgfffggkkkkmBBmmg04&                       ",
"                O..O<0dgggxMCVMMMmmMMMxxfffffffffffddfllzxzlllmzgfd4,%                       ",
"                o..#,<qdfglCVMmxmxmmzxxkkfffddssssdfklmzzgkkkkggd004&<                       ",
"                Xo.%&<0dffgBBmzmmzzxzlllxlkkffdssddfklllkgfffffs004,%,                       ",
"                XO...&9sffgMMmzzkmxMBBmzllzzzfffdddgkllgfddddsss094,%%                       ",
"                XOO..#<sdffMMmzzmMBVVVVBllzzzzzffddgkllgfddddss094,%##                       ",
"               XXOO..#<9qqdxzkmmBBVVVVBllkkklllkkkfsffddssq09949q4%#O                        ",
"               XXXO.OO<<qqslzlmmVVCZCCVMmkkmmzkkllfdddss009444qd4&#o#                        ",
"               XXXX...&<49sddgkMVMmzllffkkkkkfggkgdgldd9900qqqfk0>%##                        ",
"               XXXXX...&,<4ssddllkddzzmmmffflMBVmmlldglgsqqsffkks>&%#                        ",
"               XXXXX....,,<909,4<99kmmkkkllmBVmmzzzzllddlgffkkkz0<###                        ",
"               XXXXXX...&&&49<<&&9lmkdddfMMmmlllllllldddfkkkkkk00<##                         ",
"                XXXXXX..%%&<<&&,sgdq9fmmzllgfffkkkklllsdkkkklzk<<&##                         ",
"                XXXXXX..%%%>,&,,sgd9kmmmzllsfggklkggglfsdglllzk<<&##                         ",
"                XXXXXXX.o#%&>9,4ds9llmllflllmZZVCVBMMlfsdgllfgl9,&#                          ",
"                 XXXXXX..o#&&9<%dfkkkffkkkqZBmkfqfkmVBmlsdffffg9,&#                          ",
"                 XXXXXX..o#&&O,qffss0kkqddfssfffkkfssdkmxgsd049<##                           ",
"                 XXXXXX...#,Oqds949kkq9kBZBBmmmVSSVmgssssdd444###                            ",
"                  XXXXX...#%9q4>4ffq9kkkffssssggmVksdgkggggd4<###                            ",
"                  XXXXXX...#94#499dkfsss<<99lBBVSSBBmzzkkdflf<,###                           ",
"                   XXXXX..##<&,99dffq99<dkxVBmggd9kdfffdd9sfllfs4##                          ",
"                    XXXXo.##<&,9fkfq99kxxxmgg099qd444sflllMMlfs94&4#                         ",
"                    XXXX..&&<&9fffq9ffxxkkd9q99qdlVZZBMmxzzlfs994&44#                        ",
"                     XXXX.&&%4dlfq9skxgkdd,,sflMBCZZBmlkgdssss00,&%%#                        ",
"                      XXX.##,9kzg9gxxgd999sflmZZVmmkfssss4<<<<&&&&####                       ",
"                       XXX..<0xMgkMxgd9,,sxxmmkd4&94444ssssdkkss99<,##                       ",
"                        XX..<0kMMMf99,9slMMmk0&&4fllkldfflfmVmkklkd9##                       ",
"                           .<0gzlf<,,qlxxMgs4&49ggzMBMllllsxBMkkfkzs9,                       ",
"                            <0sgd<,9qlBxggs%&<90flzBCBBlllsxBxkkdxxfx9q                      ",
"                            <0sf0&qllBldds4&<90dlmxVMBmmxkgBllkkkCkgCk9<                     ",
"                            <0s4&4lzBldqq4%%90dgmzmVMCBzzkxCflfflBmMkkd94                    ",
"                            ,44&&0mlld44,@@490dggzmBVCVxkxxMsfBBlBkxMMlqq9                   ",
"                            #&%&,lkff44%%@%%99ddggzBBVBMMmCBglCCBCZCBmVxld9                  ",
"                            .###4fd00,&..@@099dsdzkCBVmCmBCClmDDBBCVmVVVMBk09                ",
"                            .###0dq99,%..%40090qdzmVCCBBBMBVlBGGBVVzMCBMBMMgd9               ",
"                             .##49944,O.%40%0q00slmBBZMzzVSBCCCzBVMVBMZVlzMmlf99             ",
"                              .#,<4,,%O.%%40s000dlMBBVlzzCCCBBlkzmCzBZBVVBmzmzfd9            ",
"                               %&,<,,#O%%444ss00dgzBCBmklVCZBmdmmmZBVCCBBVmmMlzfg9           ",
"                               .%&<,,#OO%%%44004dszxBVmglBVBzMgdlMVCVVVVZCVVBVlVkkf9         ",
"                                                  kmBVldkBVlBmGfzVCVmVCCBMzCMMMVlzdf9        "
};
