/* XPM */
static char *result[] = {
/* columns rows colors chars-per-pixel */
"115 112 67 1 ",
"  c black",
". c #070707",
"X c #0B0B0B",
"o c #170F07",
"O c #0B1707",
"+ c #1F170B",
"@ c #131313",
"# c #1B1B1B",
"$ c #2B230F",
"% c #232B0F",
"& c #332B13",
"* c #3F2F17",
"= c #3F2B1B",
"- c #2F371F",
"; c #232323",
": c #2F2F2F",
"> c #373737",
", c #43331B",
"< c #4B371B",
"1 c #533F1F",
"2 c #732B00",
"3 c #473323",
"4 c #533F2F",
"5 c #5F4323",
"6 c #5B472B",
"7 c #474F33",
"8 c #574333",
"9 c #5F4B37",
"0 c #6B4727",
"q c #774F2B",
"w c #7F532F",
"e c #675333",
"r c #775F3F",
"t c #434343",
"y c #4B4B4B",
"u c #6F5743",
"i c #9F3700",
"p c #9B5B13",
"a c #AF7B1F",
"s c #875733",
"d c #8F5F37",
"f c #9B633B",
"g c #A36B3F",
"h c #836B4B",
"j c #8F7753",
"k c #AB6F43",
"l c #B37347",
"z c #BF7B4B",
"x c #937B63",
"c c #CB7F4F",
"v c #C39B2F",
"b c #FFFF23",
"n c #9F8363",
"m c #9F876F",
"M c #CF8353",
"N c #D78B5B",
"B c #D7BB43",
"V c #DF9363",
"C c #E79B6B",
"Z c #EFA373",
"A c #F7AB7B",
"S c #FFB383",
"D c #FFBB93",
"F c #FFBF9B",
"G c #FFC79B",
"H c gray86",
"J c #E7E7E7",
/* pixels */
"                                                                                                                   ",
"      ..##@.                                                                                                       ",
"     :::@X...                                                                                                      ",
"    @t>###X...                                                                                                     ",
"   @#ty:&uuu3--&&                                                                                                  ",
"   @#:>uru3&-@@@..                                                                                                 ",
"   .##9xu-&&-&-@@@.                                                                                                ",
"   ..4hx9------&@@@.                                                                                               ",
"   .%949xu7&&&-&&&&&@                                                                                              ",
"   .&4--9937--uuuu444&                                                                                             ",
"   %9&&&--u33u-&@@@@&--                                                                                            ",
"   &--@&&33-u&XXXX@@@@-                                                                                            ",
"  &9-&@&&--u&XX.@@@@.X@                                                                                            ",
"  &9-@@&@--9XX.@##@....                                                                                     appp   ",
"  &u-@@&@-u&X.#:>:::...                                                                                    aBBf8p  ",
" &&u-@@@X-uX.#>#:t:@:...                                                                                  aBHfe8pp ",
" &&--&@@X-xX.#>:@>:#@:..                                                                                  abBn88pp ",
" &&&&-@-@ux.@#:>:@t......                                                                                aBHBe>8pe ",
" &&&&&@&-xu..#::.........                                                                                abBfe>8pe ",
" +&3&&@&-x4@@:t#..........                                                                              aBHBf88ap  ",
" +&-&&@&-m.@@#>:..#%99----&                                                                             abHBe88ap  ",
" @&&&&&&3x...@#t#&4u&----7-&&                                                                          aBHBf8>8pe  ",
"  @%&&&&-x.....%&h9&&&-&&7--&&                                                                         aBHBe8>8pe  ",
"  @%&&&&-r.....&jjh4&---&@&-u&&X                                                                      apeffp88ape  ",
"  @@&&%%-u...@#9uuhu9-----@&-u&&%.                                                                    f88>>2pvape  ",
"   @&&&&%9...#3j99uju99--3&+&-9&%%.                                                                   i8>;;;>pvp   ",
"   @&%&%%4&...9u-9uxxruuuuu7@-&44&%.                                                                  fi>eJ;;2ap   ",
"   @@&+%+4&...u9--9uxruxr-.XX-&9%....                                                                 fa88f;;2pe   ",
"    @&%%%&9...j&&&39uuxr&XXXXX-&......                                                                pvf88;;8pe   ",
"    @.+%+%9+..r%%&&9ujr-@XXXXXX........                                                                pvf>>8iae   ",
"    @@&%%%3%..4.%&&3uj3&.XXXXX.X.......                                                                fpaapppe    ",
"     @@&++%=..3.+%&&r9&..X+%&----&+@@..                                                                 eeffee     ",
"     @.@&+@=..3.+++&h9X.@&---------&@@.                                                                            ",
"     @@&@&@$..%..++&r3.@-7777-------&XX.                                                                           ",
"      @.&@X$..@..++3rX.&3r7777-------+@X.                                                                          ",
"      @.X@@@X.@..+%3rXX-urr7777------&@@@.                                                                         ",
"       @X&@X@.@...%9h.X-urrr7744uurhrruu44@                                                                        ",
"       @.@@@$.@...%9h.%--uurrrrhhhhhrruuuuuu                                                                       ",
"       @.X@X$X@....9h.%--9urrrrhhrhhrruuuruuu                                                                      ",
"        @.XX$@X.@..r9.&---9ruur-+....XOOX@-rrr                                                                     ",
"        @.@@@=@.@..r9.&---9rur-.........XXX-hr                                                                     ",
"        @.XX=X@@...r3.%%&-99r-..........XXX+-rr                                                                    ",
"         @@@+@++...r..%%&-99u@..........XXXX+hh                                                                    ",
"         @@@@+@@.@.u..%+&49u&......&&-&+.XXXX-rr                                                                   ",
"         @@@@@@@@+3u..%.&499@.....&--7-&+XXXX+hh                                                                   ",
"          @@@@@@++3r..%.4449X....&--7hhh7&XXXX-hh                                                                  ",
"          @@@@@@++3h....344%.....&--u7+%77-XXX+hj                                                                  ",
"          @X@@@@++r9.....44%.....%&u7+-3+77XXXX-jj                                                                 ",
"         6.@@+@+%%j9%.XX.44X.....%%u@---7j7XXXX+jj                                                                 ",
"       66q.@.++%%%j9%.XX.99X.....X&u@---3h7@X@XXhj                                                                 ",
"      6qqq...++%%%h.%.%X.49.......+h7+--h77@@XXX7j                                                                 ",
"     66qddg..@++%%h.%%%X.99........&r7rr77-XXX@@%jj                                                                ",
"    6qqggggg.@@@+%r.%%%.=49.........&7777&XXXXXX%jh                                                                ",
"   6ddzMMVzM.@@+++r.%%%X=49X..............XXXXXXXjj                                                                ",
"  6dzMCSGFCM.+++++3.%%%.=9u@..............XXXXXXXhhs                                                               ",
" 6fVFDDASAMM.@++++3.%%%&=99@.............X.XX.XXXrhss                                                              ",
" 1VGGGDAAVVg.@++++3.%%%&=9uX..................XXXrrggg                                                             ",
" sVDFSAVVMg>g@@+++3..%%%=99@....................5rrlggg                                                            ",
" sVVSVMM<<0$$.@@+++..%%%=99%....................5urlgggkd                                                          ",
" sfNM100gllff1.@+++..%%%=49%.........@XXX@@:X...5rrlgggMzd                                                         ",
" qffowdzNNNllf6+@+++..%+444%......XX@XXX@@@XX..&5rrggggkzd                                                         ",
" 1so<kllMNNMcll6.+++..%%343%......XXXXXXXXXX@..&urrgggfgk0                                                         ",
"  6o<kfllMMMNNNlf..@+.+%333........XXXXXX@X@@X.@urugggdfk0                                                         ",
"   oqfdflzMMNNNNl1.+@.++33=.........XX+X%@%@%@.@urfgggfdf0                                                         ",
"   oqfdflzMNNNVVVl1++%++3==.....X.X.+XXXXXXX@@.@5hffggffq0                                                         ",
"   oqdflzMMMMVCZZVf.++++3==..........X+X+X+X%%@.5rkgggffq<z                                                        ",
"   os0fklzzMCZSSSZc0++&+3==....X.X.@+++++%%%%@@.rdkggfffw<zz                                                       ",
"   os5fkllNNCSSFFFZc1@%+===.....XX@@+%+&%&%&%%@@rkggzfffw1kz                                                       ",
"  .<55dgllzMAFFFFSAVl+%.===.....X+@+@++++%%%%%.@kggzzkffw1fkz                                                      ",
"  .<&0sflllNAFFSSAZVcz3.===.....@@%@%+%+&%&%&%.kggNzzlffw1wfz                                                      ",
"  .<&0sflllNAFFSSAZCVMf=+$$.....X+@%@%%%----&&kggNAzllffq1wfg                                                      ",
"  .<#1sflllNCAFFSAZCCVMf=$$.....@++%&&&-----0kggNANzllgf0<wsg                                                      ",
"  .<#o0wfkkcNCFFSAZCCCVNs.%XXX@%%&&&&&&&&0kkggNSANzzllff5*0sf                                                      ",
"  .<.o0wfkklcNAFSCVVVVVNNs3$XXX%%%%&&00gkcggCZAZANzzlgfw0<0s                                                       ",
"  .<#o16wdggkNCSZCVNMMNNNccss00000gzzNggNNMVVNMMzllllffw5*0s                                                       ",
"   <.oo6wdgggcNZCNNNMMMMzcccllzkklzzVZCVNMVVNMMzlllllfl5<&1s                                                       ",
"    *.*66wdfglcZCNMcMcMzzllllllllkzzzVNNNNNMczkllllgzffq5*1                                                        ",
"       66wdffglVVMzMMzzMMVMzlzllllllzlzzzczzllllllzgffw5<&<                                                        ",
"       o,qsffglNNMMzzkMcNVVVMlZzlglgllllllllllllgfgfff05<&&                                                        ",
"       o,6sdffkNNNMzzMNVCCCCVZZAVllllgglglllgllggfffzf5<&$$                                                        ",
"       o,6qwwdgccMzkMMVVCCCCVVCVCcggffggllggkkgfffggkkw+ooX                                                        ",
"       o$66wwsflllzlMMCCZAZZCNNNNccfffffffffffddfllzcd5*$o$                                                        ",
"       $,<500sssdddgkNCNMzllfffkkckkfffddssssdfklMzzfkq,&$$                                                        ",
"       o$,<115qqsssddllkddzzzMMMfffllkkffdssddfklllkkks,*&$                                                        ",
"       $o$*<<1000qq0<5100kMMMkkkllMVCMzzfffdddgkllgkkzf1<*$                                                        ",
"       $.o$****155011**0lMkkdddfNNMMgfffkzffddgkllkklzk11*$                                                        ",
"        ..$&&**<151**<sgdws0fMMzllffsfgklkkkkfsffdlllzk11*$                                                        ",
"        ..$&&&&*,<<*<<sgd00kMMMzllfflMACZCVNNldddgllfgl0<*$                                                        ",
"        ..o$$&&&*,,0<5ds00llMllfllMAVMkfwfkMCVMlsdffffg0<*$                                                        ",
"        >+...oo$$*<*01&0dfkkkffkkwssssfffkkfssdkMcgsdq501$$                                                        ",
"       #o....ooo$*<*+<wwffssqkwddfVAVMMMCSSCMksdgkggkdd51$$                                                        ",
"       ...+...o$$<*+*wds050kw0kVAVfssssggMCSSVVMzzkkdflf1<$                                                        ",
"       ...o@@..$&.*0w5,5ffw0kkkffs050lVVCSSVMkdfffdd0sfllfs5$                                                      ",
"       ......@...$105$500dkfsss110scCVMggd005555sflllNNlfs05*5$                                                    ",
"       ##.....o.$$11*<00dffw001dkcMkggq00wdlMCAAVNMczzlfs005*55$                                                   ",
"        ......o.$$11*<0fkfw00kcccMgq0w00wdlMCAAVMlkgdssssqq<*&&$                                                   ",
"          .....oo***&5dlfw0skcgkkdq0<sflNVZACMkfssss51111****$$$$                                                  ",
"          +++@...$$.<0kzg0gccgd00<<sflMAACMls05555ssssdkkss001<$$                                                  ",
"          .........$1qcNgkNcgd0<<sfkcMMkd5*5gllkldfflfMCMkklkd0$$                                                  ",
"          .........$1qkNNNf00<0slcNMMkq**5fgkzNVNllllscVNkkfkzs0<                                                  ",
"          .........$1qgzlf1<<wlccNMks5*50ggkczVZVVlllscVckkdccfc0w                                                 ",
"           ........$1qsgd1<0wlVczgs5&*10qflkkcCNVMMckgVllkkkZkgZk01                                                ",
"               o...$1qsfq*wllVldds5&*10qdlMfkMCNZVzzkcZflfflVMNkkd05                                               ",
"               @...$1qs5*5lzVldww5&#10qdgMzkgMVCZCckccNsfVVlVkcNNlww0                                              ",
"                ....<55**qMlld55<&#<50qdggzdkzVVCVNNMZVglZZVZAZVMCcld0                                             ",
"                ....$*&*<lkff55&&##1000ddggddkZVCMZMVZZlMDDVVZCMCCCNVkq0                                           ",
"                 ....$$$5fdqq<*..#&<q00dsdzkkMCZZVVVNVClVGGVCCzNZVNVNNgd0                                          ",
"                  ...$$$qdw00<&..#&<0q0qwdzgkMVVANzzCSVZZZzVCNCVNAClzNMlf00                                        ",
"                     .$$50055<+.&+&5qqwqqslgfNVVClzzZZZVVlkzMZzVAVCCVMzMzfd0                                       ",
"                      .$<15<<&+.&++<qsqqqdldkzVZVMklCZAVMdMMMAVCZZVVCMMNlzfg0                                      ",
"                       &*<1<<$+&&$++5ssqqdgkkzcVCMglVCVzNgdlNCZCCCCAZCCVClCkkf0                                    ",
"                       .&*1<<$++&$$+$5qq5dsklkMVCldkVClVMGfzCZCMCZZVNzZNNNClzdf0                                   "
};
