/* XPM */
static char *e2157bd0ca974fbc9df6647c949d6f00Cz7O64mwVhnS8Rsi[] = {
/* columns rows colors chars-per-pixel */
"32 32 179 2 ",
"   c black",
".  c #FF2F15",
"X  c #FF221A",
"o  c #FF1A22",
"O  c #FF1530",
"+  c #FF3C3B",
"@  c #FF4F12",
"#  c #FF522D",
"$  c #FF4635",
"%  c #FF5233",
"&  c #FF622C",
"*  c #FF7B29",
"=  c #FF1251",
"-  c #FF3447",
";  c #FF3D47",
":  c #FF3153",
">  c #FF2B64",
",  c #FF3164",
"<  c #FF287D",
"1  c #FF6B53",
"2  c #FF536B",
"3  c #FF6F7E",
"4  c #FF7D77",
"5  c #FFA425",
"6  c #FFEF10",
"7  c #FFF723",
"8  c #FFFF21",
"9  c #FFFF32",
"0  c #FFF939",
"q  c #FF9544",
"w  c #FFA75B",
"e  c #FF8F65",
"r  c #FF8F70",
"t  c #FFA765",
"y  c #FFA770",
"u  c #FFC858",
"i  c #FFFF43",
"p  c #FFFE4C",
"a  c #FFFE54",
"s  c #FFFB5B",
"d  c #FFFF63",
"f  c #FFFF6C",
"g  c #FFFE75",
"h  c #FFFF7E",
"j  c #777FFF",
"k  c #FF26A8",
"l  c #FF4497",
"z  c #FF6A90",
"x  c #FF7D90",
"c  c #FF5BA9",
"v  c #FF64A9",
"b  c #BB3FFF",
"n  c #DD1FFF",
"m  c #EE0FFF",
"M  c #FF0FFF",
"N  c #E71FFF",
"B  c #DD23FF",
"V  c #C631FF",
"C  c #C03FFF",
"Z  c #DA35FF",
"A  c #EB21FF",
"S  c #FF2EFF",
"D  c #EB39FF",
"F  c #995FFF",
"G  c #B94DFF",
"H  c #A753FF",
"J  c #A05FFF",
"K  c #8575FF",
"L  c #807FFF",
"P  c #9571FF",
"I  c #A866FF",
"U  c #B569FF",
"Y  c #B379FF",
"T  c #FF5BCB",
"R  c #C943FF",
"E  c #D949FF",
"W  c #D753FF",
"Q  c #EB4DFF",
"!  c #F553FF",
"~  c #C460FF",
"^  c #D460FF",
"/  c #C477FF",
"(  c #D37BFF",
")  c #E772FF",
"_  c #FF72FF",
"`  c #33BFFF",
"'  c #559FFF",
"]  c #6697FF",
"[  c #609FFF",
"{  c #7790FF",
"}  c #41BCFF",
"|  c #48B9FF",
" . c #55B5FF",
".. c #66AAFF",
"X. c #78AFFF",
"o. c #69B5FF",
"O. c #11DFFF",
"+. c #21DDFF",
"@. c #37D9FF",
"#. c #00FFFF",
"$. c #14FEFF",
"%. c #1CFFFF",
"&. c #21ECFF",
"*. c #25FEFF",
"=. c #2CFFFF",
"-. c #33FFFF",
";. c #3BFFFF",
":. c #43CAFF",
">. c #49D8FF",
",. c #55D6FF",
"<. c #68CBFF",
"1. c #78C6FF",
"2. c #7AD3FF",
"3. c #4BEAFF",
"4. c #45FEFF",
"5. c #49FFFF",
"6. c #55FFFF",
"7. c #5CFEFF",
"8. c #66FFFF",
"9. c #6DFFFF",
"0. c #71FFFF",
"q. c #7FFFFF",
"w. c #FFB38C",
"e. c #FF8BB5",
"r. c #FFBDA9",
"t. c #FFA8BE",
"y. c #FFBDBE",
"u. c #FFD898",
"i. c #FFFF87",
"p. c #FFFF89",
"a. c #FFFF91",
"s. c #FFFE9A",
"d. c #FFD8A9",
"f. c #FFFFA1",
"g. c #FFFFA9",
"h. c #FFFFB2",
"j. c #FFFFB9",
"k. c #8586FF",
"l. c #9888FF",
"z. c #8990FF",
"x. c #9597FF",
"c. c #AA88FF",
"v. c #93A8FF",
"b. c #A8A6FF",
"n. c #B9A0FF",
"m. c #AAB8FF",
"M. c #B9B8FF",
"N. c #FF97DA",
"B. c #FFA8DA",
"V. c #FFBDDA",
"C. c #D290FF",
"Z. c #ED90FF",
"A. c #CCA0FF",
"S. c #8BCFFF",
"D. c #99CFFF",
"F. c #AECAFF",
"G. c #8BE6FF",
"H. c #8CFEFF",
"J. c #91FFFF",
"K. c #99FEFF",
"L. c #AAFFFF",
"P. c #B6FFFF",
"I. c #BFFFFF",
"U. c #FFFEC4",
"Y. c #FFFFCB",
"T. c #FFFFD4",
"R. c #FFFFDB",
"E. c #CBC9FF",
"W. c #E2C4FF",
"Q. c #FFC4FF",
"!. c #CCE0FF",
"~. c #C6FDFF",
"^. c #CCFFFF",
"/. c #DAFFFF",
"(. c #FFFFE5",
"). c #FFFFEC",
"_. c #E2E0FF",
"`. c #E2FDFF",
"'. c #FFFFFF",
/* pixels */
"#.#.#.#.#.#.#.#.#.#.#.#.#.#.#.#.#.#.#.#.#.#.#.#.#.#.#.#.#.#.#.#.",
"  #.  #.  #.  #.  #.  #.  #.  #.  #.  #.  #.  #.  #.  #.  #.  #.",
"+.#.#.#.#.#.#.#.#.#.#.#.#.#.#.#.#.#.#.#.#.#.#.#.#.#.#.#.#.#.#.'.",
"  O.  $.  $.  $.  $.  $.  *.  %.  *.  *.  -.  -.  6.  6.  6.  '.",
"+.+.&.-.*.*.*.*.*.=.=.=.=.-.-.-.;.;.4.4.4.6.6.8.8.q.q.L.L.'.).).",
"  +.  &.  *.  *.  =.  =.  -.  ;.  ;.  5.  6.  8.  q.  L.  ).  ).",
"@.+.+.+.+.*.*.=.*.=.=.-.-.-.;.;.;.;.5.6.5.6.8.H.8.6.L.'.).R.R.R.",
"  `   @.  @.  ;.  4.  4.  6.  6.  9.  9.  K.  K.  6.  ).  Y.  R.",
"} } :.:.>.>.3.=.5.6.6.7.7.8.8.0.0.q.q.J.J.L.L.^.^.'.).).R.R.Y.Y.",
"  }   :.  >.  3.  6.  7.  8.  0.  q.  J.  L.  ^.  ).  R.  Y.  Y.",
"[ } } | } >.,.,.>.6.7.8.7.8.0.q.0.q.J.L.J.L.^.'.(.T.R.T.R.j.j.j.",
"  '    .  o.  ,.  2.  0.  H.  H.  P.  P.  6.  ).  U.  U.  g.  j.",
"[ [ ....o.o.<.X.2.2.G.=.H.K.K.L.L.I.I././.'.(.(.T.T.U.U.h.h.g.g.",
"  [   ..  o.  1.  S.  G.  K.  L.  I.  /.  ).  T.  U.  h.  g.  g.",
"[ ] ] ] ] X.X.X.X.2.S.D.S.K.L.I.L.I./.'.).Y.Y.T.T.h.h.h.g.s.s.s.",
"  j   {   z.  v.  b.  D.  E.  ~.  L.  (.  j.  j.  s.  s.  i.  s.",
"L L k.k.k.x.x.x.b.b.m.M.F.E.!._.`.'.(.R.Y.Y.j.j.g.g.s.s.s.a.i.i.",
"  k.  k.  x.  b.  b.  M.  E.  _.  (.  Y.  j.  g.  s.  a.  i.  i.",
"L K K P K l.l.c.l.b.n.A.A.E.W.Q.W.U.U.U.U.f.f.f.f.p.p.p.p.g g g ",
"  F   P   I   Y   (   A.  N.  V.  r.  g.  p.  p.  g   g   d   g ",
"J J J I I U Y / C.( C.Z.Z.Z.B.B.y.y.d.s.s.s.p.p.h h g g f f d d ",
"  J   I   U   /   (   Z.  N.  t.  r.  u.  i.  h   g   f   f   d ",
"J H H G H U ~ ^ ~ ( ) _ ) e.e.e.e.w.w.w.w.g g g g d d d d a a a ",
"  b   G   E   W   D   D   z   e.  4   y   w   s   p   p   i   a ",
"C C R R R E E Q Q ! D T v v z z x 4 r r t t u p a a p p p p i i ",
"  C   R   E   Q   D   c   z   3   4   e   w   u   p   p   i   i ",
"C V V Z Q Z D S D l l l l 2 2 2 2 1 1 1 1 q q q q 0 0 0 0 9 9 9 ",
"  n   B   D   D   >   ,   -   ;   +   %   #   *   *   7   7   9 ",
"n n N A A S D k < < > > : : ; - + $ $ $ % % & & * * 5 p 7 7 8 8 ",
"  N   A   D   <   >   :   -   -   +   $   #   &   *   5   7   8 ",
"N A m M m = = = = O O O O o o o o X X X X . . . . @ @ @ @ 6 6 6 ",
"  A   M   o   o   o   o   o   o   o   o   o   .   @   @   @   6 "
};
