/* XPM */
static char *_b954d926e7644b1a7f24ee5743881f6ZDjc4rhV6HeFaf0S[] = {
/* columns rows colors chars-per-pixel */
"32 32 82 1 ",
"  c black",
". c #131313",
"X c #191919",
"o c #1E1E1E",
"O c #202020",
"+ c gray14",
"@ c #252525",
"# c #282828",
"$ c #2A2A2A",
"% c gray17",
"& c gray18",
"* c #313131",
"= c gray20",
"- c #343434",
"; c #3A3A3A",
": c gray24",
"> c gray25",
", c gray26",
"< c gray27",
"1 c gray28",
"2 c #494949",
"3 c gray29",
"4 c #4B4B4B",
"5 c #4C4C4C",
"6 c #505050",
"7 c #535353",
"8 c #565656",
"9 c #585858",
"0 c gray35",
"q c #5D5D5D",
"w c gray37",
"e c #606060",
"r c #626262",
"t c gray39",
"y c #646464",
"u c #686868",
"i c gray42",
"p c #6D6D6D",
"a c #6F6F6F",
"s c #717171",
"d c gray46",
"f c #777777",
"g c #797979",
"h c gray48",
"j c #7C7C7C",
"k c gray50",
"l c #CB0000",
"z c #FB0000",
"x c #FB9F00",
"c c #FBFB01",
"v c gray51",
"b c gray52",
"n c gray54",
"m c gray56",
"M c #909090",
"N c #939393",
"B c #959595",
"V c #979797",
"C c #9A9A9A",
"Z c gray61",
"A c #9F9F9F",
"S c #A0A0A0",
"D c #AAAAAA",
"F c gray69",
"G c gray77",
"H c #C5C5C5",
"J c #C8C8C8",
"K c #CACACA",
"L c #CBCBCB",
"P c #CECECE",
"I c gray81",
"U c #D2D2D2",
"Y c gray83",
"T c gray84",
"R c #D7D7D7",
"E c #DADADA",
"W c gray86",
"Q c #DFDFDF",
"! c gray88",
"~ c gray90",
"^ c #E7E7E7",
"/ c gray91",
/* pixels */
"==&&&==&&&$oO++++$-====&$$OO$&==",
"&63331333,,=::::,:550080533;153$",
"&3jjhjhpps8ruBMBuuhjhvMBBvh8ss3$",
"$1hjfhpp58rABMjjjuhjjhvhvh88ws1+",
"$3ppfps68ySBjbjhh83hhjjhh88uuw;+",
"O;phpp68uSBbbbhh8685hjhh88fhhy;O",
"+;wpp68uu3O+$$$+O+$+OO386hMBBh:+",
"O:ww68uu-OXoooooXXoooXO$rhhMBB:+",
"+0MMyyy=+$            $+3hMhMB:+",
"-0MMmf3o+              $6uuhhm-+",
"-8fhfs$o     .  .       unr6fh-+",
"=0hhjs$o   .   .   ..   vDpy66-+",
"=3sjfh$o  ............  jDhhh0:-",
"=1fshs$o .............. vDsh8u0-",
"$1shf3$;8pnbjvjvvjjvsu6ysDsh8u0-",
"$3hf385sMFDDDDDDDDDDCnpmCCh0pMw&",
"#2f49tBCNNjgurtNMBbhhwww0h03MZ3$",
"$138rNVMBjju8eVBMMbbbwyu993MAj3$",
"<gYRERW!!!~!^^^Q!^/^!^!!QQEETTf;",
"<pPIUYTTE!!!^!~~^!Q^!QQEEYTTTPr$",
"<pGJLPYTRES,,,,,::::,AEEPLPLHH6&",
"<uGJLPTTS;:%==**=&&==,,AEPPPPH8$",
"2uJJLLA:>$$%zlzlzllz&=*,,STYPL8=",
"1pJGLS:=&=zllzlzlzxlzz**=,STLL6&",
"<pLPY:&=zlxlzxlxccxzlzll=&,TLJ6*",
"1pPUS:$llxlxzcxlxcxzllzlz=,SLL6$",
"1pPP:&&zzxzlxcxzxxcxxzxzl*>uPU6&",
"1pJP:&zxxlxxxxzcxcxxzxzxzl4nLU6$",
"1pGL:&xxcxcxxcxxxxxccxxxzzuDJJ6=",
"1uPL=&zcxxxcxcxxxzcxxxcxczjDLL7%",
"<peu-+xxxcxzxxxczxzxcxxxzxjbqq7&",
"3>::-+zzxxzxzxcxxzzxccxcxz::::=$"
};
