/* XPM */
static char *result[] = {
/* columns rows colors chars-per-pixel */
"32 32 9 1 ",
"  c #1E1F6D",
". c #202172",
"X c #23257A",
"o c #24257B",
"O c #292B89",
"+ c #2D2F91",
"@ c #2F3195",
"# c #32359A",
"$ c #36399F",
/* pixels */
"o@$@o@$@o@$@o@$@o@$@o@$@o@$@o@$@",
"@.@.O.@.O.@.O.@.O.@.O.@.O.@.O.@.",
"$@.O#O.O#O.O#O.O#O.O#O.O#O.O#O.X",
"@.O###O###O###O###O###O###O###O ",
"oO###########################O.X",
"@.O#########################O.X+",
"$@.O#########################O.X",
"@.O###########################O ",
"oO###########################O.X",
"@.O#########################O.X+",
"$@.O#########################O.X",
"@.O###########################O ",
"oO###########################O.X",
"@.O#########################O.X+",
"$@.O#########################O.X",
"@.O###########################O ",
"oO###########################O.X",
"@.O#########################O.X+",
"$@.O#########################O.X",
"@.O###########################O ",
"oO###########################O.X",
"@.O#########################O.X+",
"$@.O#########################O.X",
"@.O###########################O ",
"oO###########################O.X",
"@.O#########################O.X+",
"$@.O#########################O.X",
"@.O###########################O ",
"oO###O###O###O###O###O###O###O.X",
"@.O#O.O#O.O#O.O#O.O#O.O#O.O#O.X+",
".X.O.X.O.X.O.X.O.X.O.X.O.X.O.X.X",
"X+X X+X X+X X+X X+X X+X X+X X+X "
};
