/* XPM */
static char *b6adb320fee94b01e9622db695da32b7cHcAyLTfV4B2jTD4[] = {
/* columns rows colors chars-per-pixel */
"32 32 29 1 ",
"  c #5F3529",
". c #7C4536",
"X c #864A3A",
"o c #8D4E3D",
"O c #8F503F",
"+ c #92503E",
"@ c #9B5643",
"# c #9D5745",
"$ c #A55B47",
"% c #AA5E4A",
"& c #99857F",
"* c #9B8883",
"= c #9D8985",
"- c #9C8A84",
"; c #9E8A84",
": c #9F8C87",
"> c #A08C86",
", c #A08E88",
"< c #A3918B",
"1 c #AB9793",
"2 c #AC9994",
"3 c #AD9995",
"4 c #AE9B96",
"5 c #AF9D97",
"6 c #B09C98",
"7 c #B19F99",
"8 c #B2A09A",
"9 c #B5A19B",
"0 c #B7A59F",
/* pixels */
"@+@%@#O2@%o%@$@@@+@%@#O5@%o%@$@@",
"...... 2%.X....X.......5%X....X.",
".......0%X....XX...... 5%XX.X...",
".X.... 0%X..XXXX.XX....5%..X....",
"..X....5%...X..........6%.X..XXX",
"...X...5%X.XXX.X...... 6%.X.XX..",
" XX    7%  . X .. ...  0%   X X ",
",,::--77;;;;;;*;;;->;;99;:*;**<<",
"@%o%@$@@%@+@%##6$@%o%@$@@@+@%@#2",
"%.........X....6%..XXX...X.... 6",
"%X.XXX.XXX.... 6%.X....XXX.... 8",
"%X....XXX......7%...X.X..X.X...8",
"%X.XXX.X...X...7%.XX.XX....X...2",
"%...X......... 7%.X...XX....X. 5",
"%.X  XX ..  .  7%  . X .. .. . 8",
"-->-->;;;-;->>77;;;;**;;;;;;;;86",
"@+@%@@o6@%o@+@@@#+$@%O@4$@@%@$@@",
".X..XX.6%...XX.........2%.X.XX..",
"XXX... 6%...X..XX.XX.. 2%X.X.X..",
"X.X... 6%.XXX..........5%X.X....",
".X..X..9%.X.XX..X.....X2%.XX..X.",
".X.X.. 9%.X.XX........ 2%..X....",
"       5%.X. .. .. ..  8%       ",
";;;>&&56>;;>;>>;;;;;**88:-::*-;*",
"@+@%@@+$@%O%+%+2@+@#+$@%O%@$@@@0",
"%X...XX....... 1%.X.X..........8",
"%X.XX.XXX..... 2%...X..........8",
"%X....XXXX.....2%.XXXX...XXX...8",
"%..XX.XX.......5%..X.......... 2",
"%XXXX.....X... 5%.X........... 4",
"%  ... ...     8%  XX ... ..   2",
";**;&&:::;>*:;88;:--*;;;>;:;>*22"
};
