/* XPM */
static char *_24ea05b72bb4ad2d5f284d8fc08c134J60uAG08Fl4bQVtS[] = {
/* columns rows colors chars-per-pixel */
"32 32 9 1 ",
"  c #6F1414",
". c #731516",
"X c #7A1819",
"o c #7B1919",
"O c #871D1E",
"+ c #8F2120",
"@ c #942221",
"# c #9A2422",
"$ c #A22722",
/* pixels */
"o@$@o@$@o@$@o@$@o@$@o@$@o@$@o@$@",
"@.@.O.@.O.@.O.@.O.@.O.@.O.@.O.@.",
"$@.O#O.O#O.O#O.O#O.O#O.O#O.O#O.o",
"@.O###O###O###O###O###O###O###O ",
"oO###########################O.o",
"@.O#########################O.X+",
"$@.O#########################O.X",
"@.O###########################O ",
"oO###########################O.X",
"@.O#########################O.X+",
"$@.O#########################O.X",
"@.O###########################O ",
"oO###########################O.X",
"@.O#########################O.X+",
"$@.O#########################O.X",
"@.O###########################O ",
"oO###########################O.X",
"@.O#########################O.X+",
"$@.O#########################O.X",
"@.O###########################O ",
"oO###########################O.X",
"@.O#########################O.X+",
"$@.O#########################O.X",
"@.O###########################O ",
"oO###########################O.X",
"@.O#########################O.X+",
"$@.O#########################O.X",
"@.O###########################O ",
"oO###O###O###O###O###O###O###O.X",
"@.O#O.O#O.O#O.O#O.O#O.O#O.O#O.X+",
".X.O.X.O.X.O.X.O.X.O.X.O.X.O.X.X",
"X+X X+X X+X X+X X+X X+X X+X X+X "
};
