/* XPM */
static char *_4c41ad30ee148bfe37716daebeb571aEXpH5ohNhyLzbFGJ[] = {
/* columns rows colors chars-per-pixel */
"32 32 9 1 ",
"  c #C65400",
". c #D35A00",
"X c #E26200",
"o c #E36200",
"O c #EB6804",
"+ c #EF6C07",
"@ c #F26F0A",
"# c #F4730F",
"$ c #F77815",
/* pixels */
"o@$@o@$@o@$@o@$@o@$@o@$@o@$@o@$@",
"@.@.O.@.O.@.O.@.O.@.O.@.O.@.O.@.",
"$@.O#O.O#O.O#O.O#O.O#O.O#O.O#O.o",
"@.O###O###O###O###O###O###O###O ",
"oO###########################O.o",
"@.O#########################O.o+",
"$@.O#########################O.o",
"@.O###########################O ",
"oO###########################O.o",
"@.O#########################O.o+",
"$@.O#########################O.o",
"@.O###########################O ",
"oO###########################O.o",
"@.O#########################O.o+",
"$@.O#########################O.o",
"@.O###########################O ",
"oO###########################O.X",
"@.O#########################O.X+",
"$@.O#########################O.X",
"@.O###########################O ",
"oO###########################O.X",
"@.O#########################O.X+",
"$@.O#########################O.X",
"@.O###########################O ",
"oO###########################O.X",
"@.O#########################O.X+",
"$@.O#########################O.X",
"@.O###########################O ",
"oO###O###O###O###O###O###O###O.X",
"@.O#O.O#O.O#O.O#O.O#O.O#O.O#O.X+",
".X.O.X.O.X.O.X.O.X.O.X.O.X.O.X.X",
"X+X X+X X+X X+X X+X X+X X+X X+X "
};
