/* XPM */
static char *_854e4e840b246ebff7f33f2b610d9fdgD8R56g2aGqoAQSI[] = {
/* columns rows colors chars-per-pixel */
"32 32 27 1 ",
"  c black",
". c #78250E",
"X c #7F270F",
"o c #8B2B10",
"O c #912D11",
"+ c #932E11",
"@ c #9A3012",
"# c #A03113",
"$ c #A73413",
"% c #A83414",
"& c #AA3414",
"* c #B23715",
"= c #B33715",
"- c #B63815",
"; c #B73815",
": c #BD3A16",
"> c #C23B16",
", c #C13C17",
"< c #C43C17",
"1 c #C93E17",
"2 c #CC4018",
"3 c #D44218",
"4 c #DB441A",
"5 c #E5481C",
"6 c #AFAFAF",
"7 c #CECECE",
"8 c gray86",
/* pixels */
"5431>;=$5431>;=$5431>;=$5431>;=$",
"542,=%@O542,=%@O542,=%@O542,=$@O",
"542,=%@O542,=%@O542,=%@O542,=%@O",
"542,=$@O542,=%@O542,=%@O542,=$@O",
"542,=%@O542,=%@O542,=$@O542,=%@O",
"542,=%@O542,=%@O542,=%@O542,=%@O",
"542,=%@O542,=%@O542,=%@O542,=%@O",
"542,=%@O542,=%@O542,=%@O542,=%@O",
"542,=%@O542,=%@O542,=%@O542,=%@O",
"542,=%@O542,=%@O542,=%@O542,=%@O",
"88888888888888888888888888888888",
"77777777777777777777777777777777",
"7777      77  7777  77      7777",
"7777      77   777  77      7777",
"777777  7777    77  7777  777777",
"777777  7777     7  7777  777777",
"777777  7777  7     7777  777777",
"777777  7777  77    7777  777777",
"777777  7777  777   7777  777777",
"777777  7777  7777  7777  777777",
"77777777777777777777777777777777",
"66666666666666666666666666666666",
",=%#+oo.,=%#Ooo.>;%#OoX.>;%#OoX.",
"542,=%++542,=$++542,;$@O542,;%@O",
"542,=&@+542,=&@+542,=%@O542,=$@O",
"542,=&@o542,=&@+542,=%@O542,=$@O",
"542,=%@+542,=%@o542,=%@O542,=%@O",
"542,=%@+542,=%@+541,=%@O542,=%@O",
"542,=%@+543,=%@o542,=%@O542,=%@O",
"542,=%@o541,=%@+542,;%@O542,=%@O",
"541<=&@+541,=%@+542,;%@O542,=%@O",
"3<:=&@@+1<,=%#@+2,:=%#@o3<:=%#@O"
};
